<svg width="36" height="36" viewBox="0 0 36 36" fill="none" xmlns="http://www.w3.org/2000/svg">
  <path
    d="M12.5289 13.3041C12.5289 13.2303 12.6127 12.9125 12.7152 12.5979C13.4597 10.3117 14.9155 8.29455 16.7967 6.94248C18.7975 5.50437 21.0431 4.71177 23.1214 4.71009C23.8573 4.70949 24.9968 4.82848 25.3718 4.94509C26.4818 5.29026 26.9677 5.46566 27.5649 5.73686C27.9453 5.90957 28.2565 6.08411 28.2565 6.12474C28.2565 6.16536 28.1942 6.17999 28.1182 6.15725C26.9075 5.79533 26.2454 5.69025 25.1742 5.69002C22.0152 5.68935 18.9668 7.57408 17.3094 10.5526C16.9585 11.1832 16.9297 11.2129 16.6707 11.2129C16.2958 11.2129 15.3688 11.4742 14.7703 11.7485C14.1008 12.0554 13.6839 12.3451 13.055 12.9403C12.6988 13.2774 12.5289 13.3949 12.5289 13.3041Z"
    fill="black" />
  <path
    d="M5.90807 23.3486C5.86377 23.2954 5.78206 23.095 5.72649 22.9034C5.67092 22.7118 5.60014 22.5202 5.5692 22.4776C5.53825 22.435 5.48712 22.2434 5.45555 22.0518C5.42399 21.8602 5.37058 21.6685 5.33687 21.626C5.30315 21.5834 5.24987 21.3221 5.21845 21.0453C5.18703 20.7685 5.13595 20.5072 5.10493 20.4647C5.07391 20.4221 5.03434 20.213 5.01699 20.0001C4.96392 19.3486 4.97922 16.233 5.03771 15.7807C5.1677 14.7756 5.57422 13.0357 5.73414 12.8C5.76303 12.7574 5.83469 12.5484 5.89337 12.3355C5.95206 12.1226 6.04627 11.8613 6.10273 11.7548C6.1592 11.6484 6.20561 11.532 6.20588 11.4963C6.20611 11.4605 6.40482 11.0425 6.64737 10.5672C6.88993 10.092 7.09839 9.62506 7.11063 9.5296C7.12287 9.43415 7.23561 9.21153 7.36116 9.03488C7.48672 8.85823 7.62574 8.65761 7.67009 8.58906C8.02343 8.04298 8.19122 7.81973 8.37032 7.65736C8.48419 7.55413 8.57736 7.42648 8.57736 7.3737C8.57736 7.25907 10.6028 5.34409 10.8298 5.24405C11.0175 5.16133 11.1089 5.10699 11.9424 4.58198C13.3919 3.66908 14.3782 3.19965 15.7694 2.76056C16.0519 2.67139 16.3542 2.56946 16.4412 2.53405C16.5997 2.46946 17.1263 2.35801 17.8638 2.23294C18.0811 2.19608 18.4435 2.16338 18.6692 2.16027C18.8948 2.15715 19.1014 2.11978 19.1283 2.0772C19.1883 1.98208 21.6694 1.971 21.7291 2.06558C21.7519 2.10178 22.1163 2.1552 22.5389 2.1843C22.9615 2.2134 23.345 2.26698 23.3912 2.30337C23.4373 2.33977 23.6707 2.39476 23.9098 2.42559C24.1489 2.45642 24.38 2.50803 24.4235 2.5403C24.467 2.57256 24.6403 2.6233 24.8086 2.65305C24.977 2.68281 25.1726 2.73613 25.2433 2.77155C25.314 2.80697 25.6209 2.93179 25.9251 3.04893C26.9253 3.43399 28.3356 4.13937 28.3356 4.25457C28.3356 4.3527 28.197 4.33818 27.9129 4.21029C26.9728 3.78706 25.5398 3.4572 24.2259 3.3616C23.8999 3.33787 23.5 3.29668 23.3372 3.27006C23.1744 3.24344 22.9788 3.24783 22.9025 3.27982C22.8262 3.3118 22.6393 3.34472 22.4872 3.35296C21.5635 3.40301 20.7414 3.49682 20.7037 3.55645C20.6797 3.59449 20.5777 3.62561 20.4769 3.62561C20.2805 3.62561 19.0957 3.98661 18.5751 4.20509C16.882 4.91553 15.6839 5.72739 14.3458 7.07084C13.4404 7.97995 13.0416 8.47546 12.4764 9.39347C12.2913 9.69428 11.5698 11.1639 11.4537 11.4766C11.0533 12.5556 10.9322 12.9999 10.738 14.1017C10.5288 15.2896 10.5392 17.2504 10.7616 18.5291C10.9087 19.3747 11.4133 20.9554 11.7833 21.7296C11.9326 22.0422 12.0548 22.3463 12.0548 22.4056C12.0548 22.4649 11.957 22.5343 11.8375 22.56C11.7179 22.5857 11.5668 22.6257 11.5016 22.6489C11.4364 22.6721 11.3119 22.7008 11.225 22.7126C11.138 22.7245 10.9246 22.7748 10.7508 22.8245C10.1174 23.0053 9.31071 23.1509 8.53785 23.2238C8.10316 23.2649 7.63829 23.3315 7.5048 23.3719C7.14202 23.4817 6.00505 23.4651 5.90807 23.3486V23.3486Z"
    fill="#D70101" />
  <path
    d="M24.002 27.4878C24.0165 27.4543 24.384 27.1181 24.8187 26.7405C25.2534 26.363 26.1069 25.5768 26.7155 24.9935C27.7687 23.9838 27.8508 23.9228 28.4227 23.7241C30.3778 23.045 32.2947 21.3455 33.3355 19.3685C33.7615 18.5592 33.9952 17.9127 34.1785 17.0358C34.2924 16.491 34.3851 16.2734 34.4325 16.4396C34.4798 16.6057 34.3013 18.0286 34.1477 18.7086C33.9001 19.8057 33.6993 20.3786 33.2338 21.3163C32.4491 22.8971 31.3705 24.2209 30.0375 25.2393C28.5056 26.4096 27.0913 27.0325 25.1348 27.3983C24.2803 27.5581 23.9606 27.5834 24.002 27.4878V27.4878Z"
    fill="black" />
  <path
    d="M33.8638 11.5849C33.8223 11.5825 33.4773 11.8848 33.0615 12.2899C32.6179 12.722 31.9866 13.3007 31.6586 13.5758C30.8342 14.2673 29.5206 15.3233 29.2529 15.5098C29.1307 15.595 28.8653 15.79 28.6633 15.9433C28.4614 16.0966 28.1004 16.3559 27.8614 16.5195C27.6223 16.6832 27.132 17.0193 26.7718 17.2666C26.4115 17.5139 26.1051 17.7162 26.0911 17.7162C26.077 17.7162 25.8027 17.8856 25.4816 18.0926C24.7896 18.5386 23.2615 19.4341 22.6234 19.7769C22.5786 19.806 22.5335 19.8335 22.4878 19.859C21.3058 20.5186 17.2105 22.3556 15.8276 22.9588C15.7549 23.0169 15.6056 23.0802 15.3454 23.1645C15.3448 23.1647 15.3344 23.1692 15.3341 23.1692L15.3333 23.1682C15.251 23.1947 15.1646 23.2221 15.0581 23.2536C14.9324 23.2907 14.6859 23.3877 14.5812 23.4412C14.5146 23.4753 14.3368 23.529 14.1861 23.5607C14.0354 23.5923 13.8765 23.6441 13.833 23.6759C13.7896 23.7077 13.6473 23.7619 13.5169 23.7962C13.2503 23.8664 13.2459 23.8676 13.0822 23.9289C13.017 23.9533 12.8036 24.0134 12.608 24.0624C12.4124 24.1114 12.1279 24.1872 11.9757 24.2309C11.4387 24.3852 10.7442 24.5439 10.1927 24.6385C9.88581 24.6911 9.59971 24.7555 9.55691 24.7814C9.51411 24.8073 8.89297 24.869 8.17659 24.9186C5.90324 25.0759 4.6021 24.8337 3.76604 24.0973C3.21884 23.6154 3.02164 23.1113 3.06673 22.3104C3.1131 21.4868 3.22548 21.112 3.69706 20.2077C3.8166 19.9785 3.91436 19.7535 3.91436 19.7078C3.91436 19.5905 3.55442 19.9306 3.19539 20.3872C3.02797 20.6001 2.7307 20.9739 2.53478 21.2177C1.39241 22.6398 0.578705 24.0973 0.14581 25.497C-0.0253992 26.0505 -0.0536266 27.4088 0.102823 27.562C0.15619 27.6143 0.199729 27.7031 0.199729 27.7593C0.199729 28.1412 1.02824 28.9043 1.70148 29.1425C1.89708 29.2117 2.13053 29.3019 2.22028 29.343C2.31002 29.384 2.70121 29.4458 3.08962 29.4803C4.21309 29.58 5.70895 29.4879 6.87811 29.2472C7.09545 29.2025 7.3444 29.1562 7.43133 29.1444C7.51827 29.1326 7.67823 29.0985 7.7869 29.0686C7.89557 29.0387 8.1091 28.9821 8.26124 28.9428C8.84451 28.7921 9.73806 28.5366 10.079 28.4228C10.6259 28.2403 11.5145 27.9255 11.7782 27.8208C11.9086 27.7691 12.1397 27.6814 12.2918 27.626C12.444 27.5706 12.7933 27.426 13.068 27.3047C13.3427 27.1834 13.5817 27.0841 13.5992 27.0841C13.6526 27.0841 14.4843 26.7062 15.6903 26.1337C17.1843 25.4246 19.589 24.1132 20.4718 23.5263C20.6457 23.4108 20.8412 23.2927 20.9064 23.2639C21.2276 23.1219 23.8006 21.3949 24.8976 20.5851C28.0671 18.2453 31.1568 15.3536 32.8012 13.1877C33.2633 12.5789 33.8679 11.6731 33.8679 11.5895C33.8679 11.5865 33.8665 11.5851 33.8637 11.5849L33.8638 11.5849Z"
    fill="black" />
  <path
    d="M18.7331 33.6279C17.5804 33.4902 16.443 33.2445 15.7738 32.9887C15.584 32.9161 15.5867 32.9114 15.9319 32.7187C16.125 32.6108 16.5143 32.4002 16.7968 32.2506C17.4932 31.8819 18.628 31.2367 18.9033 31.053C19.0271 30.9704 19.5729 30.6125 20.1162 30.2576C20.6596 29.9028 21.2549 29.5006 21.4392 29.3639L21.7742 29.1153L23.1836 29.1169C23.9832 29.1178 24.7786 29.0787 25.022 29.0266C25.2579 28.9761 25.6999 28.8819 26.0042 28.8174C26.3085 28.7529 26.6285 28.6705 26.7155 28.6345C26.8024 28.5985 27.0692 28.5102 27.3082 28.4384C28.4438 28.0972 30.1477 27.1289 31.3149 26.1615C32.3591 25.296 33.4798 23.9405 34.2128 22.6566C34.5657 22.0384 35.0978 20.8371 35.1747 20.485C35.205 20.3461 35.2562 20.1975 35.2885 20.1549C35.389 20.0223 35.7291 18.5534 35.8128 17.8904C35.8411 17.6668 35.8952 17.4839 35.933 17.4839C36.0412 17.4839 36.0137 18.7076 35.8839 19.6684C35.5888 21.8534 35.0939 23.4821 34.1812 25.2706C32.0597 29.4281 28.2245 32.3736 23.5937 33.402C22.2692 33.6961 20.1345 33.7953 18.7331 33.6279V33.6279Z"
    fill="#D70101" />
  <path
    d="M6.9175 34.2355C6.55233 34.1657 6.08968 33.9134 5.81797 33.636C5.45467 33.2651 5.31139 32.6166 5.42147 31.8413C5.51469 31.1848 5.88809 30.1027 6.05039 30.0189C6.11435 29.9858 6.46898 29.8897 6.83846 29.8053L7.51025 29.6519L7.82638 29.9667C8.40611 30.5441 9.16867 30.7127 10.3905 30.5338C13.0521 30.1439 16.5868 28.4978 20.4902 25.8303C21.5781 25.0868 23.9144 23.3301 24.0677 23.1403C24.0894 23.1133 24.4629 22.7918 24.8976 22.4257C26.2174 21.3142 28.4854 19.0048 29.2727 17.9707C29.38 17.8297 29.4378 17.7963 29.4395 17.8742C29.4428 18.0328 28.5434 19.4701 27.8766 20.372C24.3474 25.1452 18.0878 30.286 12.7125 32.8259C12.0963 33.117 11.5682 33.3553 11.5389 33.3553C11.5097 33.3553 11.3737 33.4057 11.2367 33.4674C10.9085 33.6151 10.1847 33.8473 9.40513 34.055C8.79121 34.2185 7.36825 34.3218 6.9175 34.2355V34.2355Z"
    fill="#D70101" />
  <path
    d="M17.1941 23.4722C20.2369 23.4722 22.7049 21.0429 22.7049 18.0445C22.7049 15.0461 20.2369 12.6167 17.1941 12.6167C14.1513 12.6167 11.6833 15.0461 11.6833 18.0445C11.6833 21.0429 14.1513 23.4722 17.1941 23.4722Z"
    fill="black" stroke="white" stroke-width="0.1" />
  <circle cx="16.5333" cy="20.1333" r="0.266667" fill="white" />
  <circle cx="17.6" cy="20.1333" r="0.266667" fill="white" />
  <circle cx="17.0667" cy="20.9333" r="0.266667" fill="white" />
  <path
    d="M13.3333 16.4766C13.3333 15.9749 13.7054 15.5493 14.2038 15.4921C16.4285 15.2368 17.9738 15.2364 20.1966 15.4919C20.6948 15.5492 21.0667 15.9748 21.0667 16.4763V17.3648C21.0667 17.8772 20.6793 18.3067 20.1696 18.3595L17.3029 18.656C17.2345 18.6631 17.1655 18.6631 17.0971 18.656L14.2304 18.3595C13.7207 18.3067 13.3333 17.8772 13.3333 17.3648V16.4766Z"
    fill="white" />
  <path
    d="M21.0667 17.4905C21.0667 17.9922 20.6946 18.4178 20.1962 18.475C17.9715 18.7303 16.4262 18.7307 14.2035 18.4752C13.7052 18.4179 13.3333 17.9923 13.3333 17.4908V16.6023C13.3333 16.0899 13.7207 15.6604 14.2304 15.6076L17.0971 15.3111C17.1655 15.304 17.2345 15.304 17.3029 15.3111L20.1696 15.6076C20.6793 15.6604 21.0667 16.0899 21.0667 16.6023V17.4905Z"
    fill="white" />
  <circle cx="15.2" cy="16.9334" r="0.283333" fill="#00AAE7" stroke="#0179A8" stroke-width="0.5" />
  <circle cx="19.2001" cy="16.9334" r="0.283333" fill="#00AAE7" stroke="#0179A8" stroke-width="0.5" />
  <rect x="11.2267" y="16.4" width="0.533333" height="2.93333" rx="0.266667" fill="black" />
  <rect x="22.6133" y="16.4" width="0.533333" height="2.93333" rx="0.266667" fill="black" />
</svg>